<?xml version="1.0" encoding="utf-8"?>
<!-- Generator: Adobe Illustrator 25.0.0, SVG Export Plug-In . SVG Version: 6.00 Build 0)  -->
<svg version="1.1" id="Calque_1" xmlns="http://www.w3.org/2000/svg" xmlns:xlink="http://www.w3.org/1999/xlink" x="0px" y="0px"
	 viewBox="0 0 2902.68 2902.68" style="enable-background:new 0 0 2902.68 2902.68;" xml:space="preserve">
<style type="text/css">
	.st0{fill:#75B3FF;}
	.st1{fill:#FFFFFF;}
</style>
<rect x="0.21" y="0.21" class="st0" width="2902.68" height="2902.68"/>
<g transform="translate(0.000000,1024.000000) scale(0.100000,-0.100000)">
	<path class="st1" d="M8813.37,1462.43c-819.82-106.47-1442.67-356.68-2033.58-819.82C6037.16,59.69,5539.41-768.12,5358.41-1723.69
		c-39.93-223.59-45.25-492.42-45.25-3053.03c0-2531.33,5.32-2826.78,45.25-3007.78c218.26-979.53,878.38-1738.13,1794.02-2065.52
		c271.5-98.48,662.78-170.35,918.31-170.35c417.9,0,944.92,162.37,1298.94,401.92c295.46,196.97,452.5,362,867.73,912.98
		l340.7,449.84l-117.12,95.82c-1131.25,934.28-1863.23,2134.73-2153.36,3518.84c-103.81,511.06-122.44,814.5-111.79,1881.86
		l5.32,670.76h1317.57h1317.57v-817.16c0-931.61,23.96-1152.54,175.68-1605.04c524.37-1570.44,2118.76-2547.3,3758.4-2305.08
		c332.72,50.57,755.94,178.34,1019.45,308.76c609.54,306.1,1189.8,859.75,1509.22,1442.67
		c183.66,335.38,202.29,311.43-226.25,319.41l-367.32,7.99v1317.57v1317.57l1831.29,7.99l1833.95,5.32l-13.31-1003.48
		c-7.98-785.22-21.29-1062.04-55.9-1259.01c-234.23-1328.22-708.03-2222.57-1668.92-3154.18
		c-181-175.68-449.84-409.91-596.23-516.38c-146.4-109.13-276.82-207.62-290.13-218.26c-26.62-23.96,713.35-889.03,920.97-1075.35
		c527.03-476.45,1325.55-742.63,2081.49-694.72c1344.19,85.18,2435.51,851.76,2832.11,1988.33
		c141.07,401.93,143.74,428.54,133.09,3391.08c-10.65,2707-10.65,2744.27-69.21,2997.14
		c-175.68,771.91-492.42,1373.47-998.16,1903.15c-1495.91,1565.11-3979.32,1599.71-5512.49,77.19
		c-159.71-157.04-463.15-532.35-881.04-1086c-351.35-465.81-883.7-1171.17-1179.16-1565.11
		c-298.12-396.6-553.64-716.01-564.29-710.69c-13.31,5.32-537.67,692.06-1168.51,1525.19
		c-630.84,835.79-1237.72,1615.69-1349.51,1738.13c-553.65,598.89-1298.94,1006.14-2140.05,1163.19
		C9627.87,1454.45,8991.71,1483.73,8813.37,1462.43z"/>
</g>
<g>
</g>
<g>
</g>
<g>
</g>
<g>
</g>
<g>
</g>
<g>
</g>
</svg>
